<mxfile host="app.diagrams.net" modified="2024-05-29T19:58:28.996Z" agent="Mozilla/5.0 (Windows NT 10.0; Win64; x64) AppleWebKit/537.36 (KHTML, like Gecko) Chrome/124.0.0.0 Safari/537.36 CCleaner/124.0.0.0" etag="TfTiuWtBUcZW8ndcB6w0" version="24.3.1" type="github">
  <diagram name="PÃ¡gina-1" id="Ws0XQ19Mkyah3HitIi7N">
    <mxGraphModel dx="1467" dy="710" grid="1" gridSize="10" guides="1" tooltips="1" connect="1" arrows="1" fold="1" page="1" pageScale="1" pageWidth="827" pageHeight="1169" math="0" shadow="0">
      <root>
        <mxCell id="0" />
        <mxCell id="1" parent="0" />
        <mxCell id="uatTjG2mpW_xbb4NyPdO-3" value="" style="group" vertex="1" connectable="0" parent="1">
          <mxGeometry x="180" y="50" width="120" height="60" as="geometry" />
        </mxCell>
        <mxCell id="uatTjG2mpW_xbb4NyPdO-1" value="" style="rounded=1;whiteSpace=wrap;html=1;" vertex="1" parent="uatTjG2mpW_xbb4NyPdO-3">
          <mxGeometry width="120" height="60" as="geometry" />
        </mxCell>
        <mxCell id="uatTjG2mpW_xbb4NyPdO-2" value="" style="endArrow=none;html=1;rounded=0;exitX=1;exitY=0.5;exitDx=0;exitDy=0;entryX=0;entryY=0.5;entryDx=0;entryDy=0;" edge="1" parent="uatTjG2mpW_xbb4NyPdO-3" source="uatTjG2mpW_xbb4NyPdO-1" target="uatTjG2mpW_xbb4NyPdO-1">
          <mxGeometry width="50" height="50" relative="1" as="geometry">
            <mxPoint x="190" y="330" as="sourcePoint" />
            <mxPoint x="250" y="30" as="targetPoint" />
            <Array as="points" />
          </mxGeometry>
        </mxCell>
        <mxCell id="uatTjG2mpW_xbb4NyPdO-4" value="" style="group" vertex="1" connectable="0" parent="1">
          <mxGeometry x="490" y="60" width="120" height="60" as="geometry" />
        </mxCell>
        <mxCell id="uatTjG2mpW_xbb4NyPdO-5" value="" style="rounded=1;whiteSpace=wrap;html=1;" vertex="1" parent="uatTjG2mpW_xbb4NyPdO-4">
          <mxGeometry width="120" height="60" as="geometry" />
        </mxCell>
        <mxCell id="uatTjG2mpW_xbb4NyPdO-6" value="" style="endArrow=none;html=1;rounded=0;exitX=1;exitY=0.5;exitDx=0;exitDy=0;entryX=0;entryY=0.5;entryDx=0;entryDy=0;" edge="1" parent="uatTjG2mpW_xbb4NyPdO-4" source="uatTjG2mpW_xbb4NyPdO-5" target="uatTjG2mpW_xbb4NyPdO-5">
          <mxGeometry width="50" height="50" relative="1" as="geometry">
            <mxPoint x="190" y="330" as="sourcePoint" />
            <mxPoint x="250" y="30" as="targetPoint" />
            <Array as="points" />
          </mxGeometry>
        </mxCell>
        <mxCell id="uatTjG2mpW_xbb4NyPdO-7" value="" style="group" vertex="1" connectable="0" parent="1">
          <mxGeometry x="354" y="310" width="120" height="60" as="geometry" />
        </mxCell>
        <mxCell id="uatTjG2mpW_xbb4NyPdO-8" value="" style="rounded=1;whiteSpace=wrap;html=1;" vertex="1" parent="uatTjG2mpW_xbb4NyPdO-7">
          <mxGeometry width="120" height="60" as="geometry" />
        </mxCell>
        <mxCell id="uatTjG2mpW_xbb4NyPdO-9" value="" style="endArrow=none;html=1;rounded=0;exitX=1;exitY=0.5;exitDx=0;exitDy=0;entryX=0;entryY=0.5;entryDx=0;entryDy=0;" edge="1" parent="uatTjG2mpW_xbb4NyPdO-7" source="uatTjG2mpW_xbb4NyPdO-8" target="uatTjG2mpW_xbb4NyPdO-8">
          <mxGeometry width="50" height="50" relative="1" as="geometry">
            <mxPoint x="190" y="330" as="sourcePoint" />
            <mxPoint x="250" y="30" as="targetPoint" />
            <Array as="points" />
          </mxGeometry>
        </mxCell>
        <mxCell id="uatTjG2mpW_xbb4NyPdO-10" value="" style="group" vertex="1" connectable="0" parent="1">
          <mxGeometry x="180" y="360" width="120" height="60" as="geometry" />
        </mxCell>
        <mxCell id="uatTjG2mpW_xbb4NyPdO-11" value="" style="rounded=1;whiteSpace=wrap;html=1;" vertex="1" parent="uatTjG2mpW_xbb4NyPdO-10">
          <mxGeometry width="120" height="60" as="geometry" />
        </mxCell>
        <mxCell id="uatTjG2mpW_xbb4NyPdO-12" value="" style="endArrow=none;html=1;rounded=0;exitX=1;exitY=0.5;exitDx=0;exitDy=0;entryX=0;entryY=0.5;entryDx=0;entryDy=0;" edge="1" parent="uatTjG2mpW_xbb4NyPdO-10" source="uatTjG2mpW_xbb4NyPdO-11" target="uatTjG2mpW_xbb4NyPdO-11">
          <mxGeometry width="50" height="50" relative="1" as="geometry">
            <mxPoint x="190" y="330" as="sourcePoint" />
            <mxPoint x="250" y="30" as="targetPoint" />
            <Array as="points" />
          </mxGeometry>
        </mxCell>
        <mxCell id="uatTjG2mpW_xbb4NyPdO-13" value="" style="group" vertex="1" connectable="0" parent="1">
          <mxGeometry x="420" y="470" width="120" height="60" as="geometry" />
        </mxCell>
        <mxCell id="uatTjG2mpW_xbb4NyPdO-14" value="" style="rounded=1;whiteSpace=wrap;html=1;" vertex="1" parent="uatTjG2mpW_xbb4NyPdO-13">
          <mxGeometry width="120" height="60" as="geometry" />
        </mxCell>
        <mxCell id="uatTjG2mpW_xbb4NyPdO-15" value="" style="endArrow=none;html=1;rounded=0;exitX=1;exitY=0.5;exitDx=0;exitDy=0;entryX=0;entryY=0.5;entryDx=0;entryDy=0;" edge="1" parent="uatTjG2mpW_xbb4NyPdO-13" source="uatTjG2mpW_xbb4NyPdO-14" target="uatTjG2mpW_xbb4NyPdO-14">
          <mxGeometry width="50" height="50" relative="1" as="geometry">
            <mxPoint x="190" y="330" as="sourcePoint" />
            <mxPoint x="250" y="30" as="targetPoint" />
            <Array as="points" />
          </mxGeometry>
        </mxCell>
        <mxCell id="uatTjG2mpW_xbb4NyPdO-16" value="" style="ellipse;whiteSpace=wrap;html=1;aspect=fixed;fillColor=#000000;" vertex="1" parent="1">
          <mxGeometry x="50" y="60" width="40" height="40" as="geometry" />
        </mxCell>
        <mxCell id="uatTjG2mpW_xbb4NyPdO-17" value="" style="endArrow=classic;html=1;rounded=0;exitX=1;exitY=0.5;exitDx=0;exitDy=0;" edge="1" parent="1" source="uatTjG2mpW_xbb4NyPdO-16">
          <mxGeometry width="50" height="50" relative="1" as="geometry">
            <mxPoint x="350" y="310" as="sourcePoint" />
            <mxPoint x="180" y="80" as="targetPoint" />
          </mxGeometry>
        </mxCell>
      </root>
    </mxGraphModel>
  </diagram>
</mxfile>
